# xmcd
#
# Track frame offsets: 
#        180
#        12348
#        31027
#        54083
#        73697
#        90200
#        102384
#        117426
#        134435
#        153949
#        169110
#        182484
#
# Disc length: 2604 seconds
#
# Revision: 1
# Processed by: cddbd v1.5.2PL0 Copyright (c) Steve Scherf et al.
# Submitted via: ExactAudioCopyFreeDBPlugin 1.0
#
DISCID=8c0a2a0c
DTITLE=Александр Новиков - С красавицей в обнимку
DYEAR=1996
DGENRE=Chanson
TTITLE0=С красавицей в обнимку
TTITLE1=Когда мне было 20 лет
TTITLE2=Я так хотел...
TTITLE3=Танцуйте,девочки!...
TTITLE4=Пять минут ходьбы
TTITLE5=Побрякушка
TTITLE6=Месестричка
TTITLE7=Белый пароходик
TTITLE8=Это не лето...
TTITLE9=Я вышел из лагеря...
TTITLE10=Вано,прочти...
TTITLE11=Парикмахер
EXTD=
EXTT0=
EXTT1=
EXTT2=
EXTT3=
EXTT4=
EXTT5=
EXTT6=
EXTT7=
EXTT8=
EXTT9=
EXTT10=
EXTT11=
PLAYORDER=
